<svg width="30" height="30" viewBox="0 0 30 30" fill="none" xmlns="http://www.w3.org/2000/svg">
<g clip-path="url(#clip0_719_0)">
<path d="M14.9975 0C6.71762 0 0 6.71762 0 14.9975C0 19.4423 1.93516 23.4386 5.00924 26.1851C5.21082 26.3665 5.41744 26.5429 5.63413 26.7143C5.84579 26.5328 6.05745 26.3615 6.27415 26.1952C6.05745 26.0239 5.84579 25.8475 5.63917 25.6661C5.40736 25.4645 5.18562 25.2528 4.96388 25.0311C3.65866 23.7259 2.63565 22.209 1.92004 20.5207C1.17924 18.772 0.806316 16.9175 0.806316 14.9975C0.806316 13.0774 1.17924 11.2229 1.92004 9.47422C2.63565 7.78599 3.65866 6.26407 4.96388 4.96388C6.26911 3.65866 7.78599 2.63565 9.47422 1.92004C11.2229 1.17924 13.0825 0.806316 14.9975 0.806316C16.9125 0.806316 18.772 1.17924 20.5207 1.92004C22.209 2.63565 23.7309 3.65866 25.0311 4.96388C26.3363 6.26911 27.3593 7.78599 28.0749 9.47422C28.8157 11.2229 29.1886 13.0825 29.1886 14.9975C29.1886 16.9125 28.8157 18.772 28.0749 20.5207C27.3593 22.209 26.3363 23.7309 25.0311 25.0311C24.8093 25.2478 24.5876 25.4594 24.3558 25.6661C24.1492 25.8475 23.9375 26.0239 23.7208 26.1952C23.9426 26.3615 24.1542 26.5379 24.3659 26.7143C24.5775 26.5429 24.7841 26.3665 24.9908 26.1851C28.0648 23.4386 30.005 19.4423 30.005 14.9975C30 6.71258 23.2824 0 14.9975 0Z" fill="#B9C2C1"/>
<path d="M24.3658 26.7142C21.7956 28.7704 18.5401 29.9949 14.9974 29.9949C11.4546 29.9949 8.19913 28.7653 5.63403 26.7092C5.84569 26.5278 6.05735 26.3564 6.27405 26.1901C8.76859 24.2903 11.8074 23.2572 14.9974 23.2572C18.1874 23.2572 21.2211 24.2852 23.7207 26.1851C23.9374 26.3564 24.1541 26.5328 24.3658 26.7142Z" fill="#B9C2C1"/>
<path d="M19.2519 19.2522C21.6017 16.9024 21.6017 13.0926 19.2519 10.7428C16.9021 8.39297 13.0923 8.39297 10.7425 10.7428C8.39269 13.0926 8.39269 16.9024 10.7425 19.2522C13.0923 21.602 16.9021 21.602 19.2519 19.2522Z" fill="#B9C2C1"/>
<path d="M24.3558 25.6661C21.6899 23.5848 18.4294 22.4559 14.9975 22.4559C11.5656 22.4559 8.30509 23.5848 5.63921 25.6661C5.42755 25.8324 5.2159 26.0037 5.00928 26.1851C5.21086 26.3665 5.41747 26.5429 5.63417 26.7143C5.84583 26.5328 6.05749 26.3615 6.27419 26.1952C8.76873 24.2953 11.8075 23.2622 14.9975 23.2622C18.1875 23.2622 21.2213 24.2903 23.7209 26.1902C23.9426 26.3565 24.1542 26.5329 24.3659 26.7092C24.5776 26.5379 24.7842 26.3615 24.9908 26.1801C24.7791 26.0037 24.5675 25.8324 24.3558 25.6661Z" fill="#B9C2C1"/>
</g>
<defs>
<clipPath id="clip0_719_0">
<rect width="30" height="30" fill="white"/>
</clipPath>
</defs>
</svg>
