<?xml version="1.0" standalone="no"?>
<!DOCTYPE svg PUBLIC "-//W3C//DTD SVG 20010904//EN"
 "http://www.w3.org/TR/2001/REC-SVG-20010904/DTD/svg10.dtd">
<svg version="1.0" xmlns="http://www.w3.org/2000/svg"
 width="600.000000pt" height="120.000000pt" viewBox="0 0 600.000000 120.000000"
 preserveAspectRatio="xMidYMid meet">

<g transform="translate(0.000000,120.000000) scale(0.100000,-0.100000)"
fill="#000000" stroke="none">
<path d="M1330 1097 c0 -42 -7 -106 -16 -144 -11 -47 -14 -90 -10 -141 8 -95
25 -130 26 -51 0 30 7 101 15 156 12 79 13 117 5 174 -6 40 -13 75 -15 78 -3
2 -5 -30 -5 -72z"/>
<path d="M1467 718 c-251 -246 -351 -338 -357 -328 -4 7 -13 39 -19 71 l-12
59 -130 0 c-71 0 -129 -3 -129 -7 1 -65 72 -244 110 -278 l20 -18 -24 -26
c-18 -19 -22 -31 -16 -41 7 -12 13 -11 34 9 14 14 29 21 33 18 3 -4 4 -8 2
-10 -2 -2 -41 -32 -87 -66 -68 -51 -81 -65 -71 -77 10 -12 22 -6 78 33 36 26
77 55 90 65 22 17 24 17 55 -7 29 -22 86 -50 141 -69 16 -6 17 -9 5 -16 -10
-6 39 -10 137 -10 119 0 151 3 148 13 -4 8 19 23 60 41 126 55 259 243 272
384 l6 62 -120 0 c-133 0 -132 0 -133 -70 -1 -39 -45 -156 -81 -212 -18 -28
-58 -70 -88 -94 l-55 -43 -39 22 c-37 20 -128 111 -127 126 1 3 159 119 351
256 193 138 355 256 361 263 13 15 -19 55 -38 48 -7 -3 -163 -118 -346 -257
-183 -138 -338 -253 -344 -256 -6 -2 -14 2 -17 11 -4 10 108 119 351 344 196
181 363 336 371 345 12 15 10 20 -10 37 -13 10 -26 19 -29 19 -3 0 -162 -153
-353 -341z"/>
<path d="M1091 1005 c-1 -23 -8 -67 -16 -98 -18 -70 -19 -146 -3 -184 11 -26
13 -24 19 42 4 39 10 99 14 135 4 36 2 83 -3 105 l-10 40 -1 -40z"/>
<path d="M1557 970 c-4 -41 -9 -93 -13 -115 l-6 -40 23 22 c20 20 23 32 22 90
0 38 -5 79 -11 93 -8 21 -10 13 -15 -50z"/>
<path d="M2514 876 c-60 -27 -70 -124 -17 -166 37 -29 79 -26 114 9 75 76 -1
199 -97 157z m78 -33 c12 -11 18 -30 18 -59 0 -36 -5 -47 -25 -60 -33 -21 -71
-7 -85 32 -26 68 42 133 92 87z"/>
<path d="M2156 833 c8 -27 22 -69 30 -95 21 -68 39 -62 65 23 12 38 24 67 28
64 3 -4 15 -34 27 -68 11 -34 27 -62 34 -62 8 0 25 35 42 85 32 97 33 100 15
100 -8 0 -21 -26 -32 -62 -10 -35 -21 -66 -25 -71 -3 -4 -16 24 -29 63 -13 42
-28 70 -36 70 -8 0 -23 -28 -37 -71 l-22 -71 -24 71 c-14 42 -29 71 -37 71
-12 0 -12 -8 1 -47z"/>
<path d="M2712 788 c2 -62 7 -93 16 -96 8 -2 12 9 12 39 l0 43 43 -42 c59 -58
78 -53 27 8 l-42 50 37 45 c45 54 26 60 -27 8 l-38 -37 0 37 c0 27 -4 37 -15
37 -13 0 -15 -15 -13 -92z"/>
<path d="M3000 865 c-7 -8 -10 -25 -6 -38 4 -16 0 -26 -14 -35 -14 -8 -20 -23
-20 -47 0 -46 34 -65 83 -47 21 8 35 8 41 2 13 -13 46 -13 46 0 0 6 -3 10 -7
10 -25 1 -34 17 -22 43 7 15 16 27 21 27 4 0 8 5 8 10 0 6 -16 10 -35 10 -33
0 -48 -14 -23 -22 7 -3 8 -10 3 -17 -6 -10 -14 -3 -31 25 -33 55 -31 74 7 74
17 0 28 4 24 10 -9 15 -61 12 -75 -5z m50 -133 c0 -11 -30 -21 -47 -15 -16 6
-17 45 -2 60 9 9 17 6 30 -12 11 -13 19 -28 19 -33z"/>
<path d="M3262 788 c2 -62 7 -93 16 -96 8 -2 12 9 12 37 0 33 3 41 19 41 26 0
71 38 71 60 0 27 -38 50 -83 50 l-38 0 3 -92z m72 66 c22 -9 20 -41 -4 -54
-26 -14 -40 -5 -40 24 0 34 12 42 44 30z"/>
<path d="M3462 795 c-18 -47 -32 -90 -32 -95 0 -22 22 -8 31 20 10 26 16 30
50 30 25 0 39 -5 39 -13 0 -19 27 -53 36 -45 12 13 -58 188 -76 188 -10 0 -26
-28 -48 -85z m67 5 c9 -28 8 -30 -15 -30 -26 0 -27 3 -18 38 9 30 20 28 33 -8z"/>
<path d="M3656 864 c-29 -29 -20 -62 24 -84 62 -32 51 -85 -13 -61 -22 8 -27
8 -27 -4 0 -8 11 -17 25 -21 62 -16 117 35 81 75 -10 11 -31 25 -47 32 -22 9
-29 18 -27 33 2 17 9 21 36 20 21 -1 32 3 32 12 0 20 -64 18 -84 -2z"/>
<path d="M3810 870 c0 -5 11 -10 25 -10 25 0 25 -1 25 -86 0 -64 3 -85 13 -82
8 3 13 32 15 86 3 80 4 82 27 82 14 0 25 5 25 10 0 6 -28 10 -65 10 -37 0 -65
-4 -65 -10z"/>
<path d="M4046 871 c-8 -13 -66 -165 -66 -173 0 -19 21 -6 35 22 13 24 22 30
49 30 29 0 36 -5 45 -30 10 -29 31 -42 31 -19 0 7 -14 50 -32 95 -28 76 -48
99 -62 75z m44 -97 c0 -2 -11 -4 -25 -4 -28 0 -30 6 -14 47 l11 28 14 -34 c8
-18 14 -35 14 -37z"/>
<path d="M2847 550 c-56 -10 -90 -30 -114 -67 -26 -39 -24 -351 1 -405 26 -54
52 -61 226 -66 178 -5 216 4 250 60 18 30 20 50 20 215 l0 182 -31 35 c-19 22
-42 37 -62 40 -67 10 -244 14 -290 6z m293 -121 c0 -5 -35 -9 -78 -9 -66 0
-82 -3 -97 -20 -17 -19 -16 -19 61 -22 l79 -3 0 -123 0 -123 -143 -2 -142 -2
0 117 c0 83 4 119 13 125 6 4 32 10 57 13 32 4 46 10 48 23 3 15 -5 17 -67 17
-41 0 -71 4 -71 10 0 6 56 10 149 10 94 0 152 4 156 10 7 12 35 -5 35 -21z"/>
<path d="M2852 253 c3 -97 3 -97 28 -97 25 0 25 0 28 97 l3 97 -31 0 -31 0 3
-97z"/>
<path d="M2940 325 c0 -21 5 -25 30 -25 25 0 30 4 30 25 0 21 -5 25 -30 25
-25 0 -30 -4 -30 -25z"/>
<path d="M3030 250 c0 -98 0 -100 23 -96 21 3 22 8 25 99 l3 97 -26 0 -25 0 0
-100z"/>
<path d="M2940 255 c0 -21 5 -25 30 -25 25 0 30 4 30 25 0 21 -5 25 -30 25
-25 0 -30 -4 -30 -25z"/>
<path d="M2942 188 c2 -27 7 -33 28 -33 21 0 26 6 28 33 3 30 1 32 -28 32 -29
0 -31 -2 -28 -32z"/>
<path d="M3375 543 c-35 -9 -68 -37 -81 -70 -10 -23 -14 -80 -14 -193 0 -260
9 -270 260 -270 184 0 202 5 234 60 18 31 21 55 24 194 6 267 -11 286 -258
285 -80 -1 -154 -4 -165 -6z m141 -89 c-5 -14 3 -15 56 -13 93 5 99 -4 42 -62
l-48 -48 37 -16 c20 -8 47 -15 59 -16 13 0 31 -4 41 -8 17 -6 17 -8 3 -20 -18
-15 -63 -7 -120 21 -38 19 -39 19 -85 0 -49 -21 -131 -35 -131 -23 0 4 31 17
70 30 76 24 86 32 71 58 -27 48 -27 48 -67 9 -57 -55 -59 -43 -7 34 30 43 55
69 67 70 13 0 16 -5 12 -16z m54 -165 c11 -8 12 -12 3 -16 -7 -2 -13 -9 -13
-15 0 -7 19 -9 50 -6 35 4 53 1 61 -8 9 -12 1 -14 -45 -14 l-56 0 0 -59 c0
-50 -3 -61 -20 -66 -11 -3 -31 1 -47 12 l-27 18 32 3 c32 3 33 4 30 45 l-3 42
-63 3 c-80 4 -72 22 9 22 39 0 58 4 54 10 -8 13 1 40 12 40 4 0 15 -5 23 -11z
m-75 -107 c-6 -4 -32 -22 -59 -40 -26 -19 -50 -32 -52 -29 -3 2 17 27 43 55
43 45 50 49 63 36 10 -10 11 -17 5 -22z m144 9 c46 -24 63 -44 55 -65 -9 -24
-18 -20 -63 29 -57 61 -55 68 8 36z"/>
<path d="M3500 413 c0 -5 11 -21 24 -38 l23 -29 26 29 c15 17 27 33 27 38 0 4
-22 7 -50 7 -27 0 -50 -3 -50 -7z"/>
<path d="M4427 543 c-4 -3 -7 -123 -7 -265 l0 -258 210 0 210 0 0 50 0 49
-152 3 -153 3 -3 213 -2 212 -49 0 c-26 0 -51 -3 -54 -7z"/>
<path d="M4897 544 c-4 -4 -7 -124 -7 -266 l0 -258 261 0 260 0 -3 53 -3 52
-208 3 -208 2 3 48 3 47 158 3 158 3 -3 52 -3 52 -155 5 c-153 5 -155 5 -158
29 -2 12 -1 34 2 47 l6 24 206 0 205 0 -3 53 -3 52 -251 3 c-138 1 -253 -1
-257 -4z"/>
<path d="M5462 538 c-17 -17 -15 -74 4 -92 30 -31 95 -14 93 23 0 10 -4 7 -9
-6 -10 -26 -57 -32 -78 -11 -20 20 -14 65 10 82 16 11 18 16 7 16 -8 0 -20 -5
-27 -12z"/>
<path d="M5533 539 c9 -5 17 -18 18 -27 0 -11 2 -12 6 -4 6 15 -14 42 -31 42
-6 0 -3 -5 7 -11z"/>
<path d="M2150 280 l0 -260 50 0 50 0 0 177 0 176 26 -24 c15 -13 65 -71 112
-129 47 -58 106 -126 131 -152 43 -45 48 -48 98 -48 l53 0 0 260 0 260 -55 0
-55 0 -2 -174 -3 -174 -150 174 -150 174 -52 0 -53 0 0 -260z"/>
<path d="M3860 280 l0 -260 208 0 c299 0 302 2 302 260 0 259 -2 260 -310 260
l-200 0 0 -260z m256 196 c3 -8 -8 -38 -25 -68 -17 -30 -31 -58 -31 -62 0 -3
13 0 29 8 24 13 31 13 40 2 8 -10 4 -19 -15 -37 -14 -13 -35 -37 -47 -53 l-21
-29 22 5 c31 8 36 -5 21 -63 -16 -60 -41 -88 -64 -69 -22 18 -19 43 4 37 14
-3 23 4 34 29 21 44 7 51 -28 14 -28 -30 -45 -38 -45 -22 0 5 15 34 34 65 19
31 33 57 30 57 -2 0 -20 -18 -40 -40 -37 -40 -64 -52 -64 -26 0 7 8 16 18 18
9 3 26 22 36 42 19 35 19 37 1 56 -22 24 -15 36 13 21 16 -8 21 -5 35 25 17
34 16 34 -2 24 -29 -15 -49 -12 -55 8 -11 33 -8 37 21 34 18 -2 38 4 54 17 29
24 38 26 45 7z m67 -52 c-24 -19 -26 -24 -14 -38 13 -15 15 -15 29 5 21 30 40
9 22 -25 -12 -23 -10 -29 12 -63 28 -42 53 -111 44 -120 -3 -3 -15 16 -26 43
-20 45 -22 47 -33 29 -6 -11 -17 -36 -24 -55 -11 -31 -10 -37 5 -48 9 -7 30
-16 45 -19 33 -7 31 -27 -4 -31 -16 -2 -33 6 -49 23 l-24 25 -26 -25 c-17 -16
-33 -23 -43 -19 -23 8 -21 24 2 24 10 0 24 7 31 15 11 13 10 18 -9 31 -21 15
-21 17 -5 35 9 10 25 19 36 19 17 0 17 1 1 18 -16 15 -20 16 -29 3 -8 -10 -13
-11 -18 -3 -9 15 18 67 45 85 20 14 20 15 -13 41 l-33 27 39 34 c31 28 42 32
53 23 12 -9 9 -15 -14 -34z"/>
<path d="M4180 301 c-16 -31 -8 -46 11 -22 10 10 13 24 9 31 -6 9 -11 7 -20
-9z"/>
<path d="M4135 201 c-3 -5 -1 -12 5 -16 12 -7 30 2 30 16 0 12 -27 12 -35 0z"/>
<path d="M5491 493 c0 -21 3 -32 6 -25 3 9 9 10 17 3 9 -7 12 -2 11 22 0 22
-5 33 -17 35 -15 3 -18 -4 -17 -35z m29 12 c0 -8 -4 -15 -10 -15 -5 0 -10 7
-10 15 0 8 5 15 10 15 6 0 10 -7 10 -15z"/>
<path d="M999 64 c-13 -7 -42 -19 -64 -26 l-40 -11 50 -9 c54 -9 202 0 188 12
-4 3 -31 16 -59 27 -44 18 -54 19 -75 7z"/>
<path d="M1599 63 c-92 -40 -89 -36 -29 -44 64 -8 180 0 180 12 0 5 -8 9 -17
9 -10 0 -36 9 -59 19 -37 17 -44 17 -75 4z"/>
</g>
</svg>
