<svg width="14" height="18" viewBox="0 0 14 18" fill="none" xmlns="http://www.w3.org/2000/svg">
<g clip-path="url(#clip0_719_13)">
<path d="M7.0148 0.205627C10.7884 0.205627 13.8503 3.29886 13.8503 7.11475C13.8503 13.4947 7.01779 17.7581 7.01779 17.7581C7.01779 17.7581 0.185244 13.6429 0.185244 7.11475C0.182254 3.29886 3.2412 0.205627 7.0148 0.205627ZM7.0148 11.2632C9.2993 11.2632 11.1532 9.38856 11.1532 7.07846C11.1532 4.76837 9.2993 2.89368 7.0148 2.89368C4.73031 2.89368 2.8764 4.76535 2.8764 7.07846C2.8764 9.38856 4.73031 11.2632 7.0148 11.2632Z" fill="#666666"/>
</g>
<defs>
<clipPath id="clip0_719_13">
<rect width="14" height="18" fill="white" transform="matrix(-1 0 0 1 14 0)"/>
</clipPath>
</defs>
</svg>
