<svg width="79" height="79" viewBox="0 0 79 79" fill="none" xmlns="http://www.w3.org/2000/svg">
<path fill-rule="evenodd" clip-rule="evenodd" d="M56.5655 12.9964L54.9863 11.4264L26.6711 39.082L27.0892 40.2153L56.5655 12.9964Z" fill="black"/>
<path fill-rule="evenodd" clip-rule="evenodd" d="M57.16 20.4653L55.9337 18.7374L23.8191 43.0022L24.5065 43.9033L57.16 20.4653Z" fill="black"/>
<path fill-rule="evenodd" clip-rule="evenodd" d="M35.8678 43.123C35.4498 43.1509 34.976 43.3274 34.7995 43.5689C35.6356 43.5689 35.9607 43.6897 36.8247 43.6897H42.2685C43.1603 43.6897 44.1729 43.5411 45.0089 43.4482C44.9811 43.4203 44.9532 43.3924 44.916 43.4203C44.8882 43.4482 44.8231 43.3646 44.7674 43.3274L43.8198 43.0023C44.3215 42.705 45.4827 42.4077 47.062 41.5716C50.75 39.6394 54.7353 33.183 54.7353 28.8168V28.1294H47.1549C46.8855 29.2627 46.9784 30.4518 46.3838 32.3562C45.4363 35.5054 44.1264 38.0044 41.4138 40.0017L39.9274 41.07C37.4842 39.9088 35.7656 37.9765 34.4 35.8399L32.7093 31.2879L32.2913 29.0026C32.2355 28.501 32.3842 28.0551 31.8732 28.0551H24.525C23.9305 28.0551 24.1999 28.919 24.2556 29.2163C24.7015 32.0125 25.8349 35.2825 27.795 37.4563C28.1202 37.8093 28.2131 37.9579 28.5103 38.376L28.9005 38.794C29.8481 39.6301 29.3186 39.5093 31.2229 40.8749C33.694 42.6771 35.3848 42.5006 35.8678 43.123ZM33.1552 32.0961L33.1273 32.0682C33.1273 32.0589 33.1273 32.124 33.1552 32.0961ZM33.276 31.9753L33.2481 31.9475C33.2481 31.9475 33.2481 32.0032 33.276 31.9753ZM29.4672 39.6487L29.4951 39.6765C29.5043 39.6765 29.5043 39.6208 29.4672 39.6487ZM29.3557 39.7323L29.3836 39.7601C29.3836 39.7973 29.3836 39.7323 29.3557 39.7323ZM28.5196 38.7197L28.5475 38.7476C28.5754 38.7568 28.5475 38.7197 28.5196 38.7197ZM27.4792 37.382L27.5071 37.4098C27.5071 37.4191 27.4792 37.382 27.4792 37.382ZM27.3584 37.5027L27.3863 37.5306C27.3863 37.5306 27.3584 37.4749 27.3584 37.5027ZM27.2376 37.6235L27.2655 37.6514C27.2655 37.6514 27.2376 37.5956 27.2376 37.6235ZM27.1169 37.7164L27.1448 37.7443L27.1169 37.7164ZM27.0054 37.8279L27.0333 37.8557L27.0054 37.8279ZM26.8846 37.9486L26.9125 37.9765L26.8846 37.9486ZM26.7639 38.0694L26.7917 38.0973C26.7917 38.0973 26.7639 38.0415 26.7639 38.0694ZM26.6431 38.1623L26.671 38.1902C26.671 38.218 26.6431 38.1623 26.6431 38.1623ZM26.5223 38.2738L26.5502 38.3016L26.5223 38.2738Z" fill="black"/>
<path fill-rule="evenodd" clip-rule="evenodd" d="M45.4734 43.2438C45.7149 43.5689 45.7707 43.4853 46.3373 43.5411C46.6903 43.5689 47.1734 43.6339 47.3778 43.6618C49.1057 43.8662 49.821 43.8383 51.4838 43.6618C51.7254 43.6339 52.0505 43.5689 52.4035 43.5132C52.9702 43.4203 52.9052 43.5411 53.1467 43.2159C51.6046 43.188 49.3658 41.8225 49.31 41.8225C48.892 41.7574 46.3931 43.1509 45.4734 43.2438Z" fill="black"/>
<path fill-rule="evenodd" clip-rule="evenodd" d="M26.4109 43.3645C26.5038 43.4203 26.4666 43.4203 26.6524 43.4853C27.9623 43.9591 32.4492 43.8383 33.8241 43.5132L34.2421 43.3645C33.1738 43.123 30.5541 41.8503 30.3497 41.8503L28.594 42.7421C27.8322 43.0022 27.2098 43.1509 26.4109 43.3645Z" fill="black"/>
<path fill-rule="evenodd" clip-rule="evenodd" d="M39.9369 10.2652C39.9369 14.845 38.1533 15.8297 39.2866 21.2364C39.3424 21.5058 39.4074 21.7752 39.4631 21.9795C39.5189 22.1561 39.5189 22.1839 39.5839 22.3326L39.7047 22.5741C39.7047 22.602 39.7325 22.6298 39.7325 22.667C39.7325 21.0877 39.7325 19.4249 39.9369 18.115C40.4385 14.845 40.9495 13.3865 40.2899 9.72637L39.7883 7.40393C39.7883 7.37606 39.7604 7.34819 39.7604 7.31104C39.7047 8.30504 39.9369 9.19685 39.9369 10.2652ZM39.7047 22.7506L39.7325 22.7227C39.7325 22.7227 39.7047 22.7227 39.7047 22.7506Z" fill="black"/>
<path fill-rule="evenodd" clip-rule="evenodd" d="M32.115 11.3985C32.115 11.6958 32.2915 11.4264 32.1707 11.3985C32.2079 11.3985 32.115 11.0641 32.115 11.3985ZM32.3565 12.9685C32.3565 17.2232 31.4089 16.898 31.4089 19.3877C31.4089 20.103 31.5018 20.7254 31.6505 21.32C31.7712 21.8216 31.9199 22.6298 32.245 22.9828C32.245 17.9292 33.0811 18.1986 33.0811 15.7833C33.0811 14.8915 32.7559 12.5412 32.3658 11.7422C32.2171 11.445 32.3379 11.6493 32.245 11.5379C32.2357 12.1417 32.3565 12.2532 32.3565 12.9685Z" fill="black"/>
<path fill-rule="evenodd" clip-rule="evenodd" d="M47.3779 17.9664C47.8517 16.0062 47.7309 14.6964 47.2014 12.6155L46.9599 11.928C46.8391 11.6865 46.932 11.8351 46.8391 11.7237C46.8391 12.1974 46.8948 12.1696 46.932 12.5226C46.9599 12.8477 46.932 13.1729 46.9599 13.5073C47.1085 16.5079 46.1238 17.2511 46.1238 18.5609C46.1238 18.7653 46.1238 18.9511 46.1238 19.0997L47.3779 17.9664Z" fill="black"/>
<path fill-rule="evenodd" clip-rule="evenodd" d="M56.5655 12.9964L54.9863 11.4264L26.6711 39.082L27.0892 40.2153L56.5655 12.9964Z" fill="black"/>
<path fill-rule="evenodd" clip-rule="evenodd" d="M57.16 20.4653L55.9337 18.7374L23.8191 43.0022L24.5065 43.9033L57.16 20.4653Z" fill="black"/>
<path fill-rule="evenodd" clip-rule="evenodd" d="M35.8678 43.123C35.4498 43.1509 34.976 43.3274 34.7995 43.5689C35.6356 43.5689 35.9607 43.6897 36.8247 43.6897H42.2685C43.1603 43.6897 44.1729 43.5411 45.0089 43.4482C44.9811 43.4203 44.9532 43.3924 44.916 43.4203C44.8882 43.4482 44.8231 43.3646 44.7674 43.3274L43.8198 43.0023C44.3215 42.705 45.4827 42.4077 47.062 41.5716C50.75 39.6394 54.7353 33.183 54.7353 28.8168V28.1294H47.1549C46.8855 29.2627 46.9784 30.4518 46.3838 32.3562C45.4363 35.5054 44.1264 38.0044 41.4138 40.0017L39.9274 41.07C37.4842 39.9088 35.7656 37.9765 34.4 35.8399L32.7093 31.2879L32.2913 29.0026C32.2355 28.501 32.3842 28.0551 31.8732 28.0551H24.525C23.9305 28.0551 24.1999 28.919 24.2556 29.2163C24.7015 32.0125 25.8349 35.2825 27.795 37.4563C28.1202 37.8093 28.2131 37.9579 28.5103 38.376L28.9005 38.794C29.8481 39.6301 29.3186 39.5093 31.2229 40.8749C33.694 42.6771 35.3848 42.5006 35.8678 43.123ZM33.1552 32.0961L33.1273 32.0682C33.1273 32.0589 33.1273 32.124 33.1552 32.0961ZM33.276 31.9753L33.2481 31.9475C33.2481 31.9475 33.2481 32.0032 33.276 31.9753ZM29.4672 39.6487L29.4951 39.6765C29.5043 39.6765 29.5043 39.6208 29.4672 39.6487ZM29.3557 39.7323L29.3836 39.7601C29.3836 39.7973 29.3836 39.7323 29.3557 39.7323ZM28.5196 38.7197L28.5475 38.7476C28.5754 38.7568 28.5475 38.7197 28.5196 38.7197ZM27.4792 37.382L27.5071 37.4098C27.5071 37.4191 27.4792 37.382 27.4792 37.382ZM27.3584 37.5027L27.3863 37.5306C27.3863 37.5306 27.3584 37.4749 27.3584 37.5027ZM27.2376 37.6235L27.2655 37.6514C27.2655 37.6514 27.2376 37.5956 27.2376 37.6235ZM27.1169 37.7164L27.1448 37.7443L27.1169 37.7164ZM27.0054 37.8279L27.0333 37.8557L27.0054 37.8279ZM26.8846 37.9486L26.9125 37.9765L26.8846 37.9486ZM26.7639 38.0694L26.7917 38.0973C26.7917 38.0973 26.7639 38.0415 26.7639 38.0694ZM26.6431 38.1623L26.671 38.1902C26.671 38.218 26.6431 38.1623 26.6431 38.1623ZM26.5223 38.2738L26.5502 38.3016L26.5223 38.2738Z" fill="#E30613"/>
<path fill-rule="evenodd" clip-rule="evenodd" d="M45.4734 43.2438C45.7149 43.5689 45.7707 43.4853 46.3373 43.5411C46.6903 43.5689 47.1734 43.6339 47.3778 43.6618C49.1057 43.8662 49.821 43.8383 51.4838 43.6618C51.7254 43.6339 52.0505 43.5689 52.4035 43.5132C52.9702 43.4203 52.9052 43.5411 53.1467 43.2159C51.6046 43.188 49.3658 41.8225 49.31 41.8225C48.892 41.7574 46.3931 43.1509 45.4734 43.2438Z" fill="black"/>
<path fill-rule="evenodd" clip-rule="evenodd" d="M26.4109 43.3645C26.5038 43.4203 26.4666 43.4203 26.6524 43.4853C27.9623 43.9591 32.4492 43.8383 33.8241 43.5132L34.2421 43.3645C33.1738 43.123 30.5541 41.8503 30.3497 41.8503L28.594 42.7421C27.8322 43.0022 27.2098 43.1509 26.4109 43.3645Z" fill="black"/>
<path fill-rule="evenodd" clip-rule="evenodd" d="M39.9369 10.2652C39.9369 14.845 38.1533 15.8297 39.2866 21.2364C39.3424 21.5058 39.4074 21.7752 39.4631 21.9795C39.5189 22.1561 39.5189 22.1839 39.5839 22.3326L39.7047 22.5741C39.7047 22.602 39.7325 22.6298 39.7325 22.667C39.7325 21.0877 39.7325 19.4249 39.9369 18.115C40.4385 14.845 40.9495 13.3865 40.2899 9.72637L39.7883 7.40393C39.7883 7.37606 39.7604 7.34819 39.7604 7.31104C39.7047 8.30504 39.9369 9.19685 39.9369 10.2652ZM39.7047 22.7506L39.7325 22.7227C39.7325 22.7227 39.7047 22.7227 39.7047 22.7506Z" fill="black"/>
<path fill-rule="evenodd" clip-rule="evenodd" d="M32.115 11.3985C32.115 11.6958 32.2915 11.4264 32.1707 11.3985C32.2079 11.3985 32.115 11.0641 32.115 11.3985ZM32.3565 12.9685C32.3565 17.2232 31.4089 16.898 31.4089 19.3877C31.4089 20.103 31.5018 20.7254 31.6505 21.32C31.7712 21.8216 31.9199 22.6298 32.245 22.9828C32.245 17.9292 33.0811 18.1986 33.0811 15.7833C33.0811 14.8915 32.7559 12.5412 32.3658 11.7422C32.2171 11.445 32.3379 11.6493 32.245 11.5379C32.2357 12.1417 32.3565 12.2532 32.3565 12.9685Z" fill="black"/>
<path fill-rule="evenodd" clip-rule="evenodd" d="M47.3779 17.9664C47.8517 16.0062 47.7309 14.6964 47.2014 12.6155L46.9599 11.928C46.8391 11.6865 46.932 11.8351 46.8391 11.7237C46.8391 12.1974 46.8948 12.1696 46.932 12.5226C46.9599 12.8477 46.932 13.1729 46.9599 13.5073C47.1085 16.5079 46.1238 17.2511 46.1238 18.5609C46.1238 18.7653 46.1238 18.9511 46.1238 19.0997L47.3779 17.9664Z" fill="black"/>
<path fill-rule="evenodd" clip-rule="evenodd" d="M59.5381 57.4292H69.0229V55.4969H61.4703V53.7133H66.8212C67.3879 53.7133 67.2393 53.2395 67.2393 52.0783C67.2393 51.7532 67.1464 51.6603 66.8212 51.6603H61.4703C61.4703 50.4154 61.2938 49.8766 61.8884 49.8766H69.0229V47.9444H59.5381V57.4292Z" fill="black"/>
<path d="M23.5496 51.5117H22.3884V55.0232H23.5496V51.5117Z" fill="#E30613"/>
<path d="M25.1847 51.5117H23.9678V52.4313H25.1847V51.5117Z" fill="#E30613"/>
<path d="M25.1847 52.645H23.9678V53.6854H25.1847V52.645Z" fill="#E30613"/>
<path d="M25.1847 53.8062H23.9678V55.0232H25.1847V53.8062Z" fill="#E30613"/>
<path d="M26.6711 51.5117H25.6028V55.0232H26.6711V51.5117Z" fill="#E30613"/>
<path fill-rule="evenodd" clip-rule="evenodd" d="M26.9403 47.7958C23.0758 47.8236 19.9173 47.0526 19.9173 50.7127C19.9173 58.3303 19.5271 57.5872 27.0518 57.5872C28.3895 57.5872 29.4021 56.5746 29.4021 55.2368V50.1554C29.4114 48.7805 28.278 47.7958 26.9403 47.7958ZM24.7108 50.4155L24.0884 51.01H26.643L26.8196 50.9821L27.2933 51.4002L27.089 51.4559V55.4691L26.6988 55.7664V55.4412H22.5741V55.497L21.9796 55.7385V51.0936L22.5184 51.0379H23.8282L24.1905 50.2668H21.5708V49.8767H26.866L27.2562 49.5515L27.8507 50.239H24.5528L24.7108 50.4155Z" fill="#E30613"/>
<path fill-rule="evenodd" clip-rule="evenodd" d="M9.60571 57.4292H11.538V51.1215C12.7828 51.9576 16.6566 57.4571 17.3069 57.4571H19.0905V47.9723H17.1583V54.4286L12.1604 48.7154C11.4451 47.7679 11.4451 47.9723 9.60571 47.9723C9.60571 47.9723 9.60571 57.4292 9.60571 57.4292Z" fill="black"/>
<path fill-rule="evenodd" clip-rule="evenodd" d="M51.0007 57.4292H58.7019V55.5248H53.0538V47.9444H51.0007V57.4292Z" fill="black"/>
<path fill-rule="evenodd" clip-rule="evenodd" d="M59.5381 57.4292H69.0229V55.4969H61.4703V53.7133H66.8212C67.3879 53.7133 67.2393 53.2395 67.2393 52.0783C67.2393 51.7532 67.1464 51.6603 66.8212 51.6603H61.4703C61.4703 50.4154 61.2938 49.8766 61.8884 49.8766H69.0229V47.9444H59.5381V57.4292Z" fill="#E30613"/>
<path fill-rule="evenodd" clip-rule="evenodd" d="M40.6799 47.9723V57.4571H47.8145C49.1801 57.4571 50.1648 56.3238 50.1648 54.986C50.1648 47.0805 51.0287 47.9723 40.6799 47.9723ZM44.0707 55.9986L43.6527 55.5806L43.4483 55.1625L43.6527 55.0139L44.2472 55.2833L44.8417 53.8898L44.4516 53.862L43.3832 54.9303L43.2904 54.9024L43.3182 54.4286L44.7488 52.0226L42.7515 54.1035L42.51 53.927C42.1849 53.574 42.4171 53.509 42.9002 53.574L43.8849 51.9669L43.1417 51.3723L43.3182 51.1029L44.0335 51.4931L44.7488 49.9789C44.3308 50.3969 43.8292 50.6013 43.439 50.6291L43.0209 49.7094L43.3182 49.5329L43.5598 49.8023C43.8292 49.6816 44.1543 49.6816 44.4237 49.5329C44.721 49.3843 44.9253 49.087 45.2226 48.9384L45.6407 49.2357L44.3122 51.6046H44.6095L45.5013 51.1587L45.8915 51.5767L44.786 52.5242L44.1636 53.6204L44.9625 53.351L45.2319 53.6483L44.6095 55.5806L44.0707 55.9986ZM46.3653 53.0538L46.5696 53.0816L46.839 52.7844L46.9598 52.515L47.1363 52.5707L47.2849 52.7751V53.1652L47.0155 53.4346H46.3002L45.9751 53.3139L45.8822 52.9887L46.0587 52.5428L46.3281 52.3663L46.2352 52.2177L46.0587 52.2734L45.9101 52.5986L45.6407 53.1374L45.6128 53.4625L45.1948 53.2581L45.6128 52.2177L45.9379 51.8275L46.4117 51.6789L46.6811 51.8275L46.774 52.0319L46.6811 52.3013L46.4489 52.6729L46.3281 52.9423L46.3653 53.0538ZM48.1768 55.8871L47.703 56.0079L47.2571 55.8871L46.3374 55.0511L45.5385 55.9429L45.0926 55.8871L44.7674 55.6177L44.8603 55.3483L45.3062 55.497L46.0494 54.9303L45.6314 54.6051L45.2412 54.5123L45.2969 54.0942L45.8357 53.704L46.8205 53.5275L47.0899 53.6483L46.5511 54.8374L47.6565 55.4877L48.3997 55.5806L48.1768 55.8871ZM47.8516 53.5647L47.6751 53.1467L47.0806 52.3106L46.6625 51.6603L46.2724 51.363L45.3805 50.6198V50.4712L46.7183 49.31L47.1363 49.728L46.0959 50.6198L46.6625 51.1308L47.2849 50.4433L47.5822 50.7685C47.4615 50.945 47.4336 51.01 47.3778 51.0658C47.35 51.1215 47.2292 51.2423 47.0248 51.5117L48.0653 53.1467C48.7156 55.5527 48.2697 54.5773 47.8516 53.5647ZM45.9751 53.9549L45.6499 54.2521L46.1888 54.698L46.5418 53.9549H45.9751Z" fill="#E30613"/>
<path fill-rule="evenodd" clip-rule="evenodd" d="M36.2767 50.2668L35.1526 51.5395L35.1247 51.5116L35.0876 51.5395L34.0471 50.3226L34.0843 50.2668H36.2767Z" fill="#E30613"/>
<path fill-rule="evenodd" clip-rule="evenodd" d="M39.7603 51.0379C39.7603 47.1083 37.057 47.8886 32.8859 47.8886C31.3438 47.8608 30.2383 48.7247 30.2383 50.2111V55.2926C30.2383 56.6303 31.223 57.6429 32.5886 57.6429H37.41C40.3548 57.6336 39.7603 53.6204 39.7603 51.0379ZM32.0312 55.85L31.9383 55.7571C32.6257 55.1346 33.276 54.5122 33.7777 53.8527L34.3165 54.2707C33.6383 54.9024 32.858 55.404 32.0312 55.85ZM35.4777 55.6734L34.7903 56.0636C34.6416 55.7663 34.2514 55.5527 33.8706 55.3762C33.8427 55.3762 33.8706 55.3483 33.8706 55.3204H34.9389V53.6854H32.6815V53.3882H34.911V52.4685L35.0875 52.3199L35.6821 52.645L35.7378 52.8494H35.3848V53.351H36.6389L36.9362 53.0537L37.5586 53.6762H35.4777V55.6734ZM37.5865 55.8221C36.9641 55.3483 36.3974 54.7816 35.9236 54.1314C35.8679 54.0106 35.8679 54.0385 35.9793 54.0756C36.6668 54.28 37.2613 54.5773 37.763 55.0603L37.8187 55.3855L37.5865 55.8221ZM37.7072 53.0909C36.5739 52.9144 35.7192 52.5893 35.1247 52.0505C34.205 52.7658 33.0717 52.998 31.8268 52.9701C31.8268 52.9144 31.8268 52.8772 31.8826 52.8494C32.923 52.4964 34.0192 52.2548 34.7995 51.716L33.8799 50.4991C33.3689 51.1215 32.8115 51.6324 32.217 51.9297C32.1891 51.9576 32.1241 51.9297 32.1241 51.9018C32.8951 51.01 33.5826 50.1461 34.0285 49.2542L34.6509 49.4958L34.3258 49.9138H36.258L36.611 49.6165L37.1127 50.0624L35.5056 51.8182C36.1001 52.292 37.1406 52.5056 38.4504 52.5335L37.7072 53.0909Z" fill="#E30613"/>
<path fill-rule="evenodd" clip-rule="evenodd" d="M9.60571 57.4292H11.538V51.1215C12.7828 51.9576 16.6566 57.4571 17.3069 57.4571H19.0905V47.9723H17.1583V54.4286L12.1604 48.7154C11.4451 47.7679 11.4451 47.9723 9.60571 47.9723C9.60571 47.9723 9.60571 57.4292 9.60571 57.4292Z" fill="#E30613"/>
<path fill-rule="evenodd" clip-rule="evenodd" d="M51.0007 57.4292H58.7019V55.5248H53.0538V47.9444H51.0007V57.4292Z" fill="#E30613"/>
<path fill-rule="evenodd" clip-rule="evenodd" d="M24.4786 61.8325L23.3174 65.5206H22.7786L21.8868 62.9009C21.8589 62.8451 21.8589 62.7801 21.8311 62.7244C21.8311 62.6686 21.8032 62.6036 21.8032 62.5479C21.7753 62.6686 21.7474 62.7894 21.7103 62.9009L20.8742 65.5206H20.3075L19.0906 61.8325H19.6573L20.4933 64.4801C20.5212 64.5359 20.5212 64.6009 20.5491 64.6566C20.5491 64.7124 20.5769 64.7774 20.5769 64.8331C20.5769 64.8053 20.6048 64.7402 20.6048 64.6845C20.6327 64.6288 20.6327 64.5637 20.6605 64.4801L21.5245 61.8325H22.0261L22.918 64.508C22.918 64.5637 22.9458 64.6288 22.9737 64.6566C22.9737 64.7124 23.0016 64.7774 23.0016 64.8331C23.0016 64.8053 23.0294 64.7402 23.0294 64.6845C23.0573 64.6288 23.0573 64.5637 23.0852 64.4801L23.8841 61.8047H24.4508V61.8325H24.4786ZM28.371 63.7091C28.371 63.4675 28.3432 63.291 28.3153 63.1145C28.2596 62.938 28.1945 62.7894 28.1109 62.6686C28.018 62.5479 27.9065 62.4642 27.7579 62.3714C27.6093 62.3156 27.4606 62.2785 27.2563 62.2785C27.0798 62.2785 26.9311 62.3063 26.7825 62.3992C26.6338 62.455 26.5131 62.5757 26.3923 62.6965C26.2994 62.8173 26.2158 62.9659 26.1508 63.1424C26.095 63.3189 26.0579 63.4954 26.0579 63.7369C26.0579 63.9413 26.0858 64.155 26.1508 64.3315C26.2065 64.508 26.2715 64.6566 26.3923 64.7774C26.4852 64.8982 26.5967 64.9818 26.7453 65.0747C26.894 65.1304 27.0426 65.1676 27.2191 65.1676C27.3956 65.1676 27.5721 65.1397 27.7207 65.0747C27.8694 65.0189 27.9902 64.926 28.0738 64.8053C28.1667 64.6845 28.2503 64.5359 28.3153 64.3594C28.3432 64.1178 28.371 63.9134 28.371 63.7091ZM28.9377 63.644C28.9377 63.9413 28.9098 64.2107 28.8169 64.443C28.724 64.6845 28.6126 64.8889 28.4639 65.0654C28.3153 65.2419 28.1388 65.3627 27.8973 65.4555C27.6929 65.5484 27.4235 65.6042 27.1541 65.6042C26.8847 65.6042 26.6524 65.5763 26.4388 65.4834C26.2251 65.3905 26.0486 65.279 25.9 65.0933C25.7513 64.9446 25.6306 64.7402 25.5469 64.4987C25.4541 64.2572 25.4262 64.0249 25.4262 63.7277C25.4262 63.4304 25.4541 63.161 25.5469 62.9287C25.6398 62.6872 25.7513 62.4828 25.9 62.3063C26.0486 62.1298 26.253 62.009 26.4666 61.9162C26.6803 61.8233 26.9404 61.7675 27.2098 61.7675C27.4792 61.7675 27.7115 61.8233 27.9251 61.9162C28.1295 62.009 28.3153 62.1205 28.4639 62.3063C28.6126 62.455 28.7333 62.6593 28.7891 62.9009C28.9098 63.1145 28.9377 63.3746 28.9377 63.644ZM33.0995 65.5484H32.3842L31.0743 64.1178C31.0465 64.09 31.0186 64.0621 30.9815 64.0249C30.9536 63.9971 30.9257 63.9692 30.8886 63.9042V65.5392H30.3219V61.8233H30.8886V63.4582C30.9164 63.4025 30.9814 63.3654 31.0093 63.3096C31.0372 63.2539 31.1022 63.2167 31.1022 63.1888L32.2913 61.8511H32.9787L31.3716 63.6626L33.0995 65.5484ZM38.181 63.8206C38.1531 63.9135 38.1253 63.9971 38.0881 64.0621C38.0602 64.155 38.0324 64.2386 37.9673 64.3315C37.9395 64.4244 37.8744 64.508 37.8466 64.573C37.7908 64.6659 37.7537 64.7217 37.6979 64.7774C37.7908 64.8982 37.8744 64.9818 37.9673 65.0468C38.0602 65.1025 38.1438 65.1397 38.2367 65.1397C38.2925 65.1397 38.3296 65.1397 38.3854 65.1397C38.4411 65.1397 38.5061 65.1118 38.5898 65.084V65.502C38.534 65.5299 38.4411 65.5577 38.3854 65.5577C38.2925 65.5577 38.2367 65.5856 38.1438 65.5856C38.0509 65.5856 37.9673 65.5856 37.8744 65.5577C37.7815 65.5299 37.7258 65.502 37.6701 65.4648C37.6143 65.437 37.5493 65.3719 37.4936 65.3441C37.4378 65.2883 37.3728 65.2233 37.3171 65.1676C37.2613 65.2233 37.1684 65.2883 37.0755 65.3441C36.9826 65.3998 36.9269 65.437 36.834 65.4648C36.7411 65.4927 36.6575 65.5206 36.5367 65.5577C36.416 65.5856 36.3323 65.5856 36.1837 65.5856C36.0072 65.5856 35.8586 65.5577 35.7099 65.4927C35.5613 65.437 35.4684 65.3719 35.3569 65.2883C35.264 65.1954 35.2083 65.084 35.1525 64.9632C35.0968 64.8424 35.0968 64.6938 35.0968 64.5452C35.0968 64.3965 35.1247 64.2479 35.1525 64.1271C35.1804 64.0063 35.2733 63.8856 35.3291 63.802C35.4219 63.7091 35.5056 63.6255 35.6263 63.5604C35.7471 63.5047 35.8679 63.4118 36.0165 63.3561C35.9608 63.2353 35.8957 63.1517 35.8679 63.0309C35.84 62.9102 35.8121 62.7894 35.8121 62.6408C35.8121 62.4921 35.84 62.3713 35.8679 62.2877C35.9236 62.167 35.9886 62.0834 36.0722 62.0183C36.1651 61.9254 36.2487 61.8697 36.3695 61.8418C36.4903 61.814 36.611 61.7861 36.7597 61.7861C36.9083 61.7861 37.0569 61.814 37.1777 61.8418C37.2985 61.8697 37.4192 61.9347 37.5029 61.9905V62.4642C37.4471 62.4364 37.41 62.4085 37.3542 62.3714C37.2985 62.3435 37.2334 62.3156 37.1777 62.2785C37.122 62.2506 37.0569 62.2506 37.0012 62.2227C36.9455 62.2227 36.8804 62.1948 36.8247 62.1948C36.7318 62.1948 36.6482 62.2227 36.5832 62.2506C36.5274 62.2784 36.4624 62.3435 36.4345 62.3714C36.4067 62.4271 36.3788 62.4642 36.3788 62.52C36.3788 62.5757 36.3509 62.6129 36.3509 62.6686C36.3509 62.7615 36.3788 62.873 36.4067 62.9659C36.4345 63.0867 36.5274 63.2074 36.611 63.3561C36.6389 63.4118 36.7039 63.5047 36.7597 63.5976C36.8154 63.6905 36.8804 63.7741 36.9362 63.867C36.9919 63.9599 37.0848 64.0435 37.1406 64.1643C37.1963 64.2572 37.2892 64.3408 37.3449 64.4615C37.4007 64.3687 37.4657 64.285 37.4936 64.1921C37.5214 64.0992 37.5865 63.9878 37.6143 63.867H37.2242V63.449H38.469V63.867H38.181V63.8206ZM36.2766 65.1304C36.4252 65.1304 36.5739 65.1025 36.6946 65.0375C36.8433 64.9818 36.964 64.8889 37.0848 64.796C36.9362 64.6195 36.8154 64.443 36.6668 64.2572C36.5181 64.0714 36.3974 63.9042 36.2766 63.6905C36.1558 63.7462 36.0722 63.8113 36.0072 63.867C35.9515 63.9227 35.8864 63.9878 35.8307 64.0714C35.8028 64.1271 35.775 64.22 35.7378 64.2758C35.7006 64.3315 35.7099 64.4244 35.7099 64.5173C35.7099 64.6102 35.7099 64.6938 35.7378 64.7588C35.7657 64.8146 35.7935 64.9075 35.8586 64.9353C35.9143 64.9911 35.9793 65.0282 36.0351 65.0561C36.128 65.1304 36.2209 65.1304 36.2766 65.1304ZM42.8537 62.873C42.8537 62.7801 42.8259 62.6965 42.798 62.6315C42.7701 62.5757 42.7051 62.5107 42.6494 62.455C42.5936 62.3992 42.4729 62.3621 42.38 62.3621C42.2592 62.3342 42.1384 62.3342 41.9619 62.3342H41.7576V63.579H41.9341C42.2313 63.579 42.4357 63.5233 42.6215 63.4025C42.7608 63.2632 42.8537 63.1145 42.8537 62.873ZM43.4204 62.8451C43.4204 63.0216 43.3925 63.1703 43.2997 63.3189C43.2439 63.4675 43.1231 63.5883 42.9745 63.7091C42.8259 63.8298 42.6494 63.8856 42.4357 63.9506C42.222 64.0156 41.9898 64.0435 41.6925 64.0435V65.5299H41.1259V61.8418H41.869C42.0734 61.8418 42.2871 61.8697 42.4636 61.8976C42.6401 61.9254 42.7887 61.9905 42.9374 62.0741C43.0581 62.167 43.1789 62.2506 43.2346 62.3992C43.3925 62.4828 43.4204 62.6686 43.4204 62.8451ZM47.703 65.5484H47.1084L46.6904 64.4801H45.2598L44.8696 65.5484H44.2751L45.7057 61.8604H46.2445L47.703 65.5484ZM46.0308 62.7244C46.0308 62.6965 46.003 62.6686 46.003 62.6036C45.9751 62.5479 45.9751 62.5107 45.9751 62.455C45.9751 62.5107 45.9472 62.5757 45.9472 62.6315C45.9472 62.6872 45.9194 62.7244 45.9194 62.7522L45.4735 63.9971H46.5418L46.0308 62.7244ZM50.8243 64.508C50.8243 64.6566 50.7965 64.8053 50.7314 64.926C50.6757 65.0468 50.6107 65.1676 50.4899 65.279C50.397 65.3719 50.2484 65.4555 50.0997 65.5206C49.9511 65.5763 49.7746 65.6135 49.5609 65.6135C49.468 65.6135 49.3566 65.6135 49.2637 65.5856C49.1708 65.5856 49.0872 65.5577 48.9943 65.5299C48.9014 65.502 48.8178 65.4741 48.7527 65.437C48.697 65.4091 48.6041 65.3812 48.5484 65.3441V64.7774C48.6041 64.8053 48.6691 64.8703 48.7527 64.8982C48.8456 64.926 48.9292 64.9911 49.0221 65.0189C49.115 65.0468 49.1986 65.0747 49.2915 65.1118C49.3844 65.1397 49.468 65.1397 49.5331 65.1397C49.6538 65.1397 49.7374 65.1397 49.8303 65.1118C49.9232 65.084 49.979 65.0561 50.0347 64.9911C50.0905 64.9353 50.1276 64.8703 50.1555 64.8146C50.1834 64.7588 50.1834 64.6659 50.1834 64.573C50.1834 64.4801 50.1555 64.3965 50.1276 64.3315C50.0997 64.2758 50.0347 64.2107 49.979 64.155C49.9232 64.0992 49.8303 64.0621 49.7374 64.0063C49.6446 63.9785 49.5609 63.9135 49.4402 63.8856C49.2915 63.8298 49.1429 63.7648 49.0221 63.7091C48.9014 63.6533 48.8178 63.5883 48.7249 63.5047C48.632 63.4118 48.5762 63.3282 48.5484 63.2353C48.5205 63.1424 48.4926 62.9938 48.4926 62.8823C48.4926 62.7337 48.5205 62.585 48.5855 62.4642C48.6413 62.3435 48.7342 62.2227 48.8549 62.1391C48.9757 62.0462 49.0965 61.9905 49.2451 61.9347C49.3937 61.879 49.5424 61.879 49.7189 61.879C49.8954 61.879 50.044 61.9069 50.1926 61.9347C50.3413 61.9626 50.462 61.9905 50.5828 62.0555V62.5571C50.5271 62.5293 50.462 62.5014 50.4063 62.4642C50.3506 62.4364 50.2577 62.4085 50.1648 62.4085C50.0719 62.3806 50.0161 62.3806 49.9232 62.3528C49.8303 62.3528 49.7746 62.3249 49.6817 62.3249C49.5888 62.3249 49.5052 62.3249 49.4123 62.3528C49.3194 62.3806 49.2637 62.4085 49.2079 62.4735C49.1522 62.5293 49.115 62.5664 49.0872 62.65C49.0593 62.7058 49.0593 62.7708 49.0593 62.8544C49.0593 62.938 49.0872 63.0031 49.115 63.0588C49.1429 63.1145 49.2079 63.1796 49.2637 63.2353C49.3194 63.291 49.4123 63.3282 49.5052 63.3561C49.5981 63.3839 49.7096 63.449 49.8303 63.4768C49.979 63.5326 50.0997 63.5976 50.2205 63.6533C50.3413 63.7091 50.4249 63.802 50.5178 63.8577C50.6107 63.9506 50.6664 64.0342 50.6943 64.155C50.7965 64.2386 50.8243 64.3594 50.8243 64.508ZM54.2987 62.3063H53.379V65.5206H52.8124V62.3063H51.8927V61.8325H54.3359V62.3063H54.2987ZM58.5255 65.5484H57.931L57.513 64.4801H56.0823L55.6922 65.5484H55.0976L56.5282 61.8604H57.0671L58.5255 65.5484ZM56.8627 62.7244C56.8627 62.6965 56.8348 62.6686 56.8348 62.6036C56.8348 62.5479 56.8069 62.5107 56.8069 62.455C56.8069 62.5107 56.7791 62.5757 56.7791 62.6315C56.7791 62.6872 56.7512 62.7244 56.7512 62.7522L56.296 64.0063H57.3643L56.8627 62.7244Z" fill="black"/>
</svg>
