<svg width="24" height="24" viewBox="0 0 24 24" fill="none" xmlns="http://www.w3.org/2000/svg">
<path fill-rule="evenodd" clip-rule="evenodd" d="M7.25 7.25V7.13C7.25 5.87023 7.75045 4.66205 8.64124 3.77125C9.53204 2.88045 10.7402 2.38 12 2.38C13.2598 2.38 14.468 2.88045 15.3588 3.77125C16.2496 4.66205 16.75 5.87023 16.75 7.13V7.25H18.251C18.822 7.25 19.307 7.669 19.391 8.234L19.609 9.72701C20.039 12.665 20.039 15.651 19.609 18.589C19.508 19.2788 19.1799 19.9153 18.6766 20.3978C18.1733 20.8803 17.5235 21.1812 16.83 21.253L16.201 21.318C13.4078 21.608 10.5922 21.608 7.799 21.318L7.17 21.253C6.47651 21.1812 5.82674 20.8803 5.32345 20.3978C4.82015 19.9153 4.49204 19.2788 4.391 18.589C3.96049 15.6507 3.96049 12.6653 4.391 9.72701L4.61 8.234C4.6501 7.96057 4.78724 7.71069 4.99637 7.53002C5.20549 7.34935 5.47264 7.24996 5.749 7.25H7.25ZM11.19 3.983C11.6701 3.85945 12.1721 3.84736 12.6576 3.94768C13.1431 4.04799 13.5992 4.25804 13.9911 4.56175C14.3829 4.86547 14.7 5.25479 14.9182 5.69994C15.1365 6.14509 15.2499 6.63425 15.25 7.13V7.25H8.75V7.13C8.7501 6.40913 8.98987 5.70874 9.43158 5.13904C9.87329 4.56934 10.4919 4.16267 11.19 3.983ZM7.25 8.75V11C7.25 11.1989 7.32902 11.3897 7.46967 11.5303C7.61032 11.671 7.80109 11.75 8 11.75C8.19891 11.75 8.38968 11.671 8.53033 11.5303C8.67098 11.3897 8.75 11.1989 8.75 11V8.75H15.25V11C15.25 11.1989 15.329 11.3897 15.4697 11.5303C15.6103 11.671 15.8011 11.75 16 11.75C16.1989 11.75 16.3897 11.671 16.5303 11.5303C16.671 11.3897 16.75 11.1989 16.75 11V8.75H17.95L18.125 9.94401C18.534 12.7385 18.534 15.5776 18.125 18.372C18.0724 18.732 17.9012 19.0642 17.6386 19.3159C17.376 19.5677 17.0369 19.7247 16.675 19.762L16.046 19.826C13.356 20.106 10.644 20.106 7.954 19.826L7.324 19.761C6.96229 19.7235 6.62342 19.5664 6.36099 19.3146C6.09856 19.0629 5.92755 18.7308 5.875 18.371C5.46565 15.5769 5.46565 12.7381 5.875 9.94401L6.05 8.75H7.25Z" fill="black"/>
</svg>
