<svg width="361" height="361" viewBox="0 0 361 361" fill="none" xmlns="http://www.w3.org/2000/svg">
<path fill-rule="evenodd" clip-rule="evenodd" d="M258.483 59.389L251.266 52.2148L121.877 178.59L123.787 183.769L258.483 59.389Z" fill="black"/>
<path fill-rule="evenodd" clip-rule="evenodd" d="M261.199 93.5191L255.596 85.6233L108.844 196.504L111.985 200.622L261.199 93.5191Z" fill="black"/>
<path fill-rule="evenodd" clip-rule="evenodd" d="M163.902 197.055C161.992 197.183 159.827 197.989 159.02 199.093C162.841 199.093 164.327 199.645 168.275 199.645H193.151C197.226 199.645 201.853 198.966 205.674 198.541C205.546 198.414 205.419 198.286 205.249 198.414C205.122 198.541 204.825 198.159 204.57 197.989L200.24 196.503C202.532 195.145 207.839 193.787 215.055 189.966C231.908 181.136 250.119 151.633 250.119 131.681V128.54H215.48C214.249 133.719 214.673 139.153 211.956 147.855C207.626 162.246 201.641 173.665 189.245 182.792L182.453 187.674C171.289 182.367 163.435 173.538 157.195 163.774L149.469 142.973L147.559 132.53C147.304 130.238 147.983 128.2 145.648 128.2H112.07C109.353 128.2 110.584 132.148 110.839 133.507C112.877 146.284 118.055 161.227 127.013 171.16C128.498 172.774 128.923 173.453 130.281 175.363L132.064 177.273C136.394 181.094 133.974 180.542 142.677 186.782C153.969 195.018 161.695 194.211 163.902 197.055ZM151.507 146.666L151.379 146.539C151.379 146.497 151.379 146.794 151.507 146.666ZM152.058 146.115L151.931 145.987C151.931 145.987 151.931 146.242 152.058 146.115ZM134.654 181.179L134.781 181.306C134.823 181.306 134.823 181.051 134.654 181.179ZM134.144 181.561L134.272 181.688C134.272 181.858 134.272 181.561 134.144 181.561ZM130.324 176.934L130.451 177.061C130.578 177.104 130.451 176.934 130.324 176.934ZM125.569 170.821L125.697 170.948C125.697 170.991 125.569 170.821 125.569 170.821ZM125.017 171.373L125.145 171.5C125.145 171.5 125.017 171.245 125.017 171.373ZM124.466 171.925L124.593 172.052C124.593 172.052 124.466 171.797 124.466 171.925ZM123.914 172.349L124.041 172.476L123.914 172.349ZM123.404 172.858L123.532 172.986L123.404 172.858ZM122.852 173.41L122.98 173.538L122.852 173.41ZM122.301 173.962L122.428 174.09C122.428 174.09 122.301 173.835 122.301 173.962ZM121.749 174.387L121.876 174.514C121.876 174.641 121.749 174.387 121.749 174.387ZM121.197 174.896L121.324 175.023L121.197 174.896Z" fill="black"/>
<path fill-rule="evenodd" clip-rule="evenodd" d="M207.796 197.608C208.9 199.094 209.154 198.712 211.744 198.966C213.357 199.094 215.564 199.391 216.498 199.518C224.394 200.452 227.663 200.325 235.261 199.518C236.365 199.391 237.851 199.094 239.464 198.839C242.053 198.415 241.756 198.966 242.86 197.481C235.813 197.353 225.583 191.113 225.328 191.113C223.418 190.816 211.999 197.184 207.796 197.608Z" fill="black"/>
<path fill-rule="evenodd" clip-rule="evenodd" d="M120.688 198.16C121.112 198.414 120.942 198.414 121.791 198.712C127.777 200.876 148.28 200.325 154.563 198.839L156.473 198.16C151.592 197.056 139.62 191.24 138.687 191.24L130.663 195.315C127.182 196.504 124.338 197.183 120.688 198.16Z" fill="black"/>
<path fill-rule="evenodd" clip-rule="evenodd" d="M182.496 46.908C182.496 67.8361 174.346 72.3359 179.524 97.0422C179.779 98.2732 180.076 99.5043 180.331 100.438C180.586 101.245 180.586 101.372 180.883 102.051L181.435 103.155C181.435 103.282 181.562 103.41 181.562 103.58C181.562 96.363 181.562 88.7643 182.496 82.7788C184.788 67.8361 187.123 61.1714 184.109 44.4459L181.817 33.8332C181.817 33.7058 181.689 33.5785 181.689 33.4087C181.435 37.9509 182.496 42.0262 182.496 46.908ZM181.435 103.962L181.562 103.834C181.562 103.834 181.435 103.834 181.435 103.962Z" fill="black"/>
<path fill-rule="evenodd" clip-rule="evenodd" d="M146.753 52.0874C146.753 53.4458 147.559 52.2148 147.008 52.0874C147.177 52.0874 146.753 50.5592 146.753 52.0874ZM147.857 59.2616C147.857 78.7039 143.527 77.2182 143.527 88.5949C143.527 91.8636 143.951 94.7078 144.63 97.4246C145.182 99.717 145.861 103.41 147.347 105.023C147.347 81.9302 151.168 83.1612 151.168 72.1241C151.168 68.0488 149.682 57.3088 147.899 53.6581C147.22 52.2997 147.772 53.2336 147.347 52.7242C147.305 55.4835 147.857 55.9929 147.857 59.2616Z" fill="black"/>
<path fill-rule="evenodd" clip-rule="evenodd" d="M216.499 82.0993C218.664 73.1422 218.112 67.1567 215.692 57.6478L214.588 54.5064C214.036 53.4027 214.461 54.0819 214.036 53.5725C214.036 55.7375 214.291 55.6101 214.461 57.2233C214.588 58.709 214.461 60.1948 214.588 61.723C215.268 75.4346 210.768 78.8306 210.768 84.8162C210.768 85.7501 210.768 86.5991 210.768 87.2783L216.499 82.0993Z" fill="black"/>
<path fill-rule="evenodd" clip-rule="evenodd" d="M258.483 59.389L251.266 52.2148L121.877 178.59L123.787 183.769L258.483 59.389Z" fill="black"/>
<path fill-rule="evenodd" clip-rule="evenodd" d="M261.199 93.5191L255.596 85.6233L108.844 196.504L111.985 200.622L261.199 93.5191Z" fill="black"/>
<path fill-rule="evenodd" clip-rule="evenodd" d="M163.902 197.055C161.992 197.183 159.827 197.989 159.02 199.093C162.841 199.093 164.327 199.645 168.275 199.645H193.151C197.226 199.645 201.853 198.966 205.674 198.541C205.546 198.414 205.419 198.286 205.249 198.414C205.122 198.541 204.825 198.159 204.57 197.989L200.24 196.503C202.532 195.145 207.839 193.787 215.055 189.966C231.908 181.136 250.119 151.633 250.119 131.681V128.54H215.48C214.249 133.719 214.673 139.153 211.956 147.855C207.626 162.246 201.641 173.665 189.245 182.792L182.453 187.674C171.289 182.367 163.435 173.538 157.195 163.774L149.469 142.973L147.559 132.53C147.304 130.238 147.983 128.2 145.648 128.2H112.07C109.353 128.2 110.584 132.148 110.839 133.507C112.877 146.284 118.055 161.227 127.013 171.16C128.498 172.774 128.923 173.453 130.281 175.363L132.064 177.273C136.394 181.094 133.974 180.542 142.677 186.782C153.969 195.018 161.695 194.211 163.902 197.055ZM151.507 146.666L151.379 146.539C151.379 146.497 151.379 146.794 151.507 146.666ZM152.058 146.115L151.931 145.987C151.931 145.987 151.931 146.242 152.058 146.115ZM134.654 181.179L134.781 181.306C134.823 181.306 134.823 181.051 134.654 181.179ZM134.144 181.561L134.272 181.688C134.272 181.858 134.272 181.561 134.144 181.561ZM130.324 176.934L130.451 177.061C130.578 177.104 130.451 176.934 130.324 176.934ZM125.569 170.821L125.697 170.948C125.697 170.991 125.569 170.821 125.569 170.821ZM125.017 171.373L125.145 171.5C125.145 171.5 125.017 171.245 125.017 171.373ZM124.466 171.925L124.593 172.052C124.593 172.052 124.466 171.797 124.466 171.925ZM123.914 172.349L124.041 172.476L123.914 172.349ZM123.404 172.858L123.532 172.986L123.404 172.858ZM122.852 173.41L122.98 173.538L122.852 173.41ZM122.301 173.962L122.428 174.09C122.428 174.09 122.301 173.835 122.301 173.962ZM121.749 174.387L121.876 174.514C121.876 174.641 121.749 174.387 121.749 174.387ZM121.197 174.896L121.324 175.023L121.197 174.896Z" fill="#E30613"/>
<path fill-rule="evenodd" clip-rule="evenodd" d="M207.796 197.608C208.9 199.094 209.154 198.712 211.744 198.966C213.357 199.094 215.564 199.391 216.498 199.518C224.394 200.452 227.663 200.325 235.261 199.518C236.365 199.391 237.851 199.094 239.464 198.839C242.053 198.415 241.756 198.966 242.86 197.481C235.813 197.353 225.583 191.113 225.328 191.113C223.418 190.816 211.999 197.184 207.796 197.608Z" fill="black"/>
<path fill-rule="evenodd" clip-rule="evenodd" d="M120.688 198.16C121.112 198.414 120.942 198.414 121.791 198.712C127.777 200.876 148.28 200.325 154.563 198.839L156.473 198.16C151.592 197.056 139.62 191.24 138.687 191.24L130.663 195.315C127.182 196.504 124.338 197.183 120.688 198.16Z" fill="black"/>
<path fill-rule="evenodd" clip-rule="evenodd" d="M182.496 46.908C182.496 67.8361 174.346 72.3359 179.524 97.0422C179.779 98.2732 180.076 99.5043 180.331 100.438C180.586 101.245 180.586 101.372 180.883 102.051L181.435 103.155C181.435 103.282 181.562 103.41 181.562 103.58C181.562 96.363 181.562 88.7643 182.496 82.7788C184.788 67.8361 187.123 61.1714 184.109 44.4459L181.817 33.8332C181.817 33.7058 181.689 33.5785 181.689 33.4087C181.435 37.9509 182.496 42.0262 182.496 46.908ZM181.435 103.962L181.562 103.834C181.562 103.834 181.435 103.834 181.435 103.962Z" fill="black"/>
<path fill-rule="evenodd" clip-rule="evenodd" d="M146.753 52.0874C146.753 53.4458 147.559 52.2148 147.008 52.0874C147.177 52.0874 146.753 50.5592 146.753 52.0874ZM147.857 59.2616C147.857 78.7039 143.527 77.2182 143.527 88.5949C143.527 91.8636 143.951 94.7078 144.63 97.4246C145.182 99.717 145.861 103.41 147.347 105.023C147.347 81.9302 151.168 83.1612 151.168 72.1241C151.168 68.0488 149.682 57.3088 147.899 53.6581C147.22 52.2997 147.772 53.2336 147.347 52.7242C147.305 55.4835 147.857 55.9929 147.857 59.2616Z" fill="black"/>
<path fill-rule="evenodd" clip-rule="evenodd" d="M216.499 82.0993C218.664 73.1422 218.112 67.1567 215.692 57.6478L214.588 54.5064C214.036 53.4027 214.461 54.0819 214.036 53.5725C214.036 55.7375 214.291 55.6101 214.461 57.2233C214.588 58.709 214.461 60.1948 214.588 61.723C215.268 75.4346 210.768 78.8306 210.768 84.8162C210.768 85.7501 210.768 86.5991 210.768 87.2783L216.499 82.0993Z" fill="black"/>
<path fill-rule="evenodd" clip-rule="evenodd" d="M272.066 262.43H315.408V253.6H280.896V245.45H305.348C307.937 245.45 307.258 243.285 307.258 237.978C307.258 236.492 306.833 236.068 305.348 236.068H280.896C280.896 230.38 280.09 227.917 282.806 227.917H315.408V219.088H272.066V262.43Z" fill="black"/>
<path d="M107.613 235.388H102.306V251.435H107.613V235.388Z" fill="#E30613"/>
<path d="M115.084 235.388H109.523V239.591H115.084V235.388Z" fill="#E30613"/>
<path d="M115.084 240.567H109.523V245.321H115.084V240.567Z" fill="#E30613"/>
<path d="M115.084 245.874H109.523V251.435H115.084V245.874Z" fill="#E30613"/>
<path d="M121.876 235.388H116.995V251.435H121.876V235.388Z" fill="#E30613"/>
<path fill-rule="evenodd" clip-rule="evenodd" d="M123.107 218.408C105.447 218.536 91.0143 215.012 91.0143 231.738C91.0143 266.547 89.2314 263.151 123.616 263.151C129.729 263.151 134.356 258.524 134.356 252.411V229.191C134.399 222.908 129.22 218.408 123.107 218.408ZM112.919 230.379L110.075 233.096H121.749L122.555 232.969L124.72 234.879L123.786 235.134V253.472L122.003 254.831V253.345H103.155V253.6L100.438 254.703V233.478L102.9 233.223H108.886L110.542 229.7H98.5705V227.917H122.767L124.55 226.431L127.267 229.573H112.197L112.919 230.379Z" fill="#E30613"/>
<path fill-rule="evenodd" clip-rule="evenodd" d="M43.8943 262.43H52.724V233.606C58.4124 237.426 76.1143 262.557 79.0858 262.557H87.2364V219.215H78.4066V248.718L55.5682 222.611C52.2995 218.281 52.2995 219.215 43.8943 219.215C43.8943 219.215 43.8943 262.43 43.8943 262.43Z" fill="black"/>
<path fill-rule="evenodd" clip-rule="evenodd" d="M233.054 262.43H268.246V253.727H242.436V219.088H233.054V262.43Z" fill="black"/>
<path fill-rule="evenodd" clip-rule="evenodd" d="M272.066 262.43H315.408V253.6H280.896V245.45H305.348C307.937 245.45 307.258 243.285 307.258 237.978C307.258 236.492 306.833 236.068 305.348 236.068H280.896C280.896 230.38 280.09 227.917 282.806 227.917H315.408V219.088H272.066V262.43Z" fill="#E30613"/>
<path fill-rule="evenodd" clip-rule="evenodd" d="M185.892 219.215V262.557H218.494C224.734 262.557 229.234 257.378 229.234 251.265C229.234 215.139 233.182 219.215 185.892 219.215ZM201.386 255.892L199.476 253.982L198.542 252.072L199.476 251.392L202.193 252.623L204.909 246.256L203.127 246.128L198.245 251.01L197.82 250.883L197.948 248.718L204.485 237.723L195.358 247.232L194.254 246.426C192.769 244.812 193.83 244.515 196.037 244.812L200.537 237.469L197.141 234.752L197.948 233.521L201.216 235.304L204.485 228.384C202.575 230.294 200.282 231.228 198.499 231.356L196.589 227.153L197.948 226.346L199.051 227.578C200.282 227.026 201.768 227.026 202.999 226.346C204.358 225.667 205.292 224.309 206.65 223.63L208.56 224.988L202.49 235.813H203.848L207.923 233.775L209.706 235.686L204.655 240.016L201.811 245.025L205.461 243.794L206.692 245.152L203.848 253.982L201.386 255.892ZM211.871 242.435L212.805 242.563L214.036 241.204L214.588 239.973L215.395 240.228L216.074 241.162V242.945L214.843 244.176H211.574L210.088 243.624L209.664 242.138L210.471 240.1L211.702 239.294L211.277 238.615L210.471 238.869L209.791 240.355L208.56 242.817L208.433 244.303L206.523 243.369L208.433 238.615L209.919 236.832L212.084 236.153L213.315 236.832L213.739 237.766L213.315 238.997L212.253 240.695L211.702 241.926L211.871 242.435ZM220.149 255.383L217.984 255.935L215.947 255.383L211.744 251.562L208.093 255.637L206.056 255.383L204.57 254.152L204.994 252.921L207.032 253.6L210.428 251.01L208.518 249.525L206.735 249.1L206.99 247.19L209.452 245.407L213.951 244.6L215.183 245.152L212.72 250.586L217.772 253.557L221.168 253.982L220.149 255.383ZM218.663 244.77L217.857 242.86L215.14 239.039L213.23 236.068L211.447 234.709L207.372 231.313V230.634L213.485 225.328L215.395 227.238L210.64 231.313L213.23 233.648L216.074 230.507L217.432 231.992C216.881 232.799 216.753 233.096 216.499 233.351C216.371 233.606 215.819 234.157 214.885 235.388L219.64 242.86C222.611 253.854 220.574 249.397 218.663 244.77ZM210.088 246.553L208.603 247.911L211.065 249.949L212.678 246.553H210.088Z" fill="#E30613"/>
<path fill-rule="evenodd" clip-rule="evenodd" d="M165.77 229.7L160.634 235.515L160.506 235.388L160.337 235.515L155.582 229.954L155.752 229.7H165.77Z" fill="#E30613"/>
<path fill-rule="evenodd" clip-rule="evenodd" d="M181.689 233.223C181.689 215.267 169.336 218.833 150.276 218.833C143.229 218.705 138.177 222.653 138.177 229.445V252.666C138.177 258.779 142.677 263.406 148.917 263.406H170.949C184.406 263.363 181.689 245.025 181.689 233.223ZM146.37 255.213L145.946 254.788C149.087 251.944 152.059 249.1 154.351 246.086L156.813 247.996C153.714 250.883 150.148 253.175 146.37 255.213ZM162.119 254.406L158.978 256.189C158.299 254.831 156.516 253.854 154.775 253.048C154.648 253.048 154.775 252.92 154.775 252.793H159.657V245.322H149.342V243.963H159.53V239.761L160.336 239.082L163.053 240.567L163.308 241.501H161.695V243.794H167.426L168.784 242.435L171.628 245.279H162.119V254.406ZM171.756 255.085C168.911 252.92 166.322 250.331 164.157 247.359C163.902 246.808 163.902 246.935 164.412 247.105C167.553 248.039 170.27 249.397 172.562 251.604L172.817 253.09L171.756 255.085ZM172.308 242.605C167.129 241.798 163.223 240.313 160.506 237.85C156.304 241.119 151.125 242.18 145.436 242.053C145.436 241.798 145.436 241.629 145.691 241.501C150.445 239.888 155.455 238.784 159.02 236.322L154.818 230.761C152.483 233.605 149.936 235.94 147.219 237.299C147.092 237.426 146.795 237.299 146.795 237.171C150.318 233.096 153.459 229.148 155.497 225.073L158.341 226.177L156.856 228.087H165.685L167.298 226.728L169.591 228.766L162.247 236.789C164.964 238.954 169.718 239.931 175.704 240.058L172.308 242.605Z" fill="#E30613"/>
<path fill-rule="evenodd" clip-rule="evenodd" d="M43.8943 262.43H52.724V233.606C58.4124 237.426 76.1143 262.557 79.0858 262.557H87.2364V219.215H78.4066V248.718L55.5682 222.611C52.2995 218.281 52.2995 219.215 43.8943 219.215C43.8943 219.215 43.8943 262.43 43.8943 262.43Z" fill="#E30613"/>
<path fill-rule="evenodd" clip-rule="evenodd" d="M233.054 262.43H268.246V253.727H242.436V219.088H233.054V262.43Z" fill="#E30613"/>
<path fill-rule="evenodd" clip-rule="evenodd" d="M111.858 282.552L106.552 299.404H104.089L100.014 287.433C99.8869 287.179 99.8869 286.882 99.7595 286.627C99.7595 286.372 99.6321 286.075 99.6321 285.82C99.5048 286.372 99.3774 286.924 99.2076 287.433L95.3871 299.404H92.7976L87.2366 282.552H89.8261L93.6466 294.65C93.774 294.905 93.774 295.202 93.9013 295.457C93.9013 295.711 94.0287 296.008 94.0287 296.263C94.0287 296.136 94.156 295.839 94.156 295.584C94.2834 295.329 94.2834 295.032 94.4107 294.65L98.3586 282.552H100.651L104.726 294.777C104.726 295.032 104.854 295.329 104.981 295.457C104.981 295.711 105.108 296.008 105.108 296.263C105.108 296.136 105.236 295.839 105.236 295.584C105.363 295.329 105.363 295.032 105.49 294.65L109.141 282.424H111.731V282.552H111.858ZM129.645 291.127C129.645 290.023 129.517 289.216 129.39 288.41C129.135 287.603 128.838 286.924 128.456 286.372C128.032 285.82 127.522 285.438 126.843 285.014C126.164 284.759 125.485 284.589 124.551 284.589C123.744 284.589 123.065 284.717 122.386 285.141C121.706 285.396 121.155 285.948 120.603 286.499C120.178 287.051 119.796 287.731 119.499 288.537C119.244 289.344 119.075 290.15 119.075 291.254C119.075 292.188 119.202 293.164 119.499 293.971C119.754 294.777 120.051 295.457 120.603 296.008C121.027 296.56 121.537 296.942 122.216 297.367C122.895 297.622 123.574 297.791 124.381 297.791C125.187 297.791 125.994 297.664 126.673 297.367C127.352 297.112 127.904 296.688 128.286 296.136C128.711 295.584 129.093 294.905 129.39 294.098C129.517 292.994 129.645 292.06 129.645 291.127ZM132.234 290.829C132.234 292.188 132.107 293.419 131.682 294.48C131.258 295.584 130.748 296.518 130.069 297.324C129.39 298.131 128.583 298.683 127.48 299.107C126.546 299.532 125.315 299.787 124.084 299.787C122.853 299.787 121.791 299.659 120.815 299.235C119.839 298.81 119.032 298.301 118.353 297.452C117.674 296.773 117.122 295.839 116.74 294.735C116.315 293.631 116.188 292.57 116.188 291.211C116.188 289.853 116.315 288.622 116.74 287.561C117.164 286.457 117.674 285.523 118.353 284.717C119.032 283.91 119.966 283.358 120.942 282.934C121.919 282.509 123.107 282.254 124.338 282.254C125.569 282.254 126.631 282.509 127.607 282.934C128.541 283.358 129.39 283.868 130.069 284.717C130.748 285.396 131.3 286.33 131.555 287.433C132.107 288.41 132.234 289.598 132.234 290.829ZM151.252 299.532H147.983L141.998 292.994C141.871 292.867 141.743 292.74 141.573 292.57C141.446 292.443 141.319 292.315 141.149 292.018V299.489H138.559V282.509H141.149V289.98C141.276 289.726 141.573 289.556 141.701 289.301C141.828 289.046 142.125 288.877 142.125 288.749L147.559 282.636H150.7L143.356 290.914L151.252 299.532ZM174.473 291.636C174.345 292.06 174.218 292.443 174.048 292.74C173.921 293.164 173.793 293.546 173.496 293.971C173.369 294.395 173.072 294.777 172.944 295.074C172.69 295.499 172.52 295.754 172.265 296.008C172.69 296.56 173.072 296.942 173.496 297.239C173.921 297.494 174.303 297.664 174.727 297.664C174.982 297.664 175.152 297.664 175.406 297.664C175.661 297.664 175.958 297.537 176.34 297.409V299.32C176.086 299.447 175.661 299.574 175.406 299.574C174.982 299.574 174.727 299.702 174.303 299.702C173.878 299.702 173.496 299.702 173.072 299.574C172.647 299.447 172.392 299.32 172.138 299.15C171.883 299.022 171.586 298.725 171.331 298.598C171.077 298.343 170.779 298.046 170.525 297.791C170.27 298.046 169.845 298.343 169.421 298.598C168.996 298.853 168.742 299.022 168.317 299.15C167.893 299.277 167.511 299.404 166.959 299.574C166.407 299.702 166.025 299.702 165.346 299.702C164.539 299.702 163.86 299.574 163.181 299.277C162.501 299.022 162.077 298.725 161.568 298.343C161.143 297.919 160.888 297.409 160.634 296.857C160.379 296.306 160.379 295.626 160.379 294.947C160.379 294.268 160.506 293.589 160.634 293.037C160.761 292.485 161.186 291.933 161.44 291.551C161.865 291.127 162.247 290.745 162.799 290.447C163.351 290.193 163.902 289.768 164.582 289.513C164.327 288.962 164.03 288.58 163.902 288.028C163.775 287.476 163.648 286.924 163.648 286.245C163.648 285.566 163.775 285.014 163.902 284.632C164.157 284.08 164.454 283.698 164.836 283.401C165.261 282.976 165.643 282.721 166.195 282.594C166.747 282.467 167.298 282.339 167.978 282.339C168.657 282.339 169.336 282.467 169.888 282.594C170.44 282.721 170.992 283.018 171.374 283.273V285.438C171.119 285.311 170.949 285.183 170.694 285.014C170.44 284.886 170.143 284.759 169.888 284.589C169.633 284.462 169.336 284.462 169.081 284.334C168.827 284.334 168.529 284.207 168.275 284.207C167.85 284.207 167.468 284.334 167.171 284.462C166.916 284.589 166.619 284.886 166.492 285.014C166.365 285.268 166.237 285.438 166.237 285.693C166.237 285.948 166.11 286.117 166.11 286.372C166.11 286.797 166.237 287.306 166.365 287.731C166.492 288.282 166.916 288.834 167.298 289.513C167.426 289.768 167.723 290.193 167.978 290.617C168.232 291.042 168.529 291.424 168.784 291.848C169.039 292.273 169.463 292.655 169.718 293.207C169.973 293.631 170.397 294.013 170.652 294.565C170.907 294.141 171.204 293.759 171.331 293.334C171.459 292.909 171.756 292.4 171.883 291.848H170.1V289.938H175.789V291.848H174.473V291.636ZM165.77 297.622C166.449 297.622 167.129 297.494 167.68 297.197C168.36 296.942 168.912 296.518 169.463 296.093C168.784 295.287 168.232 294.48 167.553 293.631C166.874 292.782 166.322 292.018 165.77 291.042C165.218 291.296 164.836 291.594 164.539 291.848C164.284 292.103 163.987 292.4 163.733 292.782C163.605 293.037 163.478 293.461 163.308 293.716C163.138 293.971 163.181 294.395 163.181 294.82C163.181 295.244 163.181 295.626 163.308 295.923C163.435 296.178 163.563 296.603 163.86 296.73C164.115 296.985 164.412 297.155 164.666 297.282C165.091 297.622 165.515 297.622 165.77 297.622ZM195.825 287.306C195.825 286.881 195.698 286.499 195.571 286.202C195.443 285.948 195.146 285.65 194.891 285.396C194.637 285.141 194.085 284.971 193.66 284.971C193.108 284.844 192.557 284.844 191.75 284.844H190.816V290.532H191.623C192.981 290.532 193.915 290.278 194.764 289.726C195.401 289.089 195.825 288.41 195.825 287.306ZM198.415 287.179C198.415 287.985 198.287 288.664 197.863 289.344C197.608 290.023 197.056 290.575 196.377 291.127C195.698 291.678 194.891 291.933 193.915 292.23C192.939 292.527 191.877 292.655 190.519 292.655V299.447H187.929V282.594H191.325C192.259 282.594 193.236 282.721 194.042 282.849C194.849 282.976 195.528 283.273 196.207 283.655C196.759 284.08 197.311 284.462 197.566 285.141C198.287 285.523 198.415 286.372 198.415 287.179ZM217.984 299.532H215.268L213.357 294.65H206.82L205.037 299.532H202.32L208.858 282.679H211.32L217.984 299.532ZM210.343 286.627C210.343 286.499 210.216 286.372 210.216 286.075C210.089 285.82 210.089 285.65 210.089 285.396C210.089 285.65 209.961 285.948 209.961 286.202C209.961 286.457 209.834 286.627 209.834 286.754L207.796 292.443H212.678L210.343 286.627ZM232.248 294.777C232.248 295.457 232.12 296.136 231.823 296.688C231.569 297.239 231.271 297.791 230.72 298.301C230.295 298.725 229.616 299.107 228.937 299.404C228.257 299.659 227.451 299.829 226.475 299.829C226.05 299.829 225.541 299.829 225.116 299.702C224.692 299.702 224.31 299.574 223.885 299.447C223.461 299.32 223.079 299.192 222.781 299.022C222.527 298.895 222.102 298.768 221.847 298.598V296.008C222.102 296.136 222.399 296.433 222.781 296.56C223.206 296.688 223.588 296.985 224.012 297.112C224.437 297.239 224.819 297.367 225.243 297.537C225.668 297.664 226.05 297.664 226.347 297.664C226.899 297.664 227.281 297.664 227.706 297.537C228.13 297.409 228.385 297.282 228.64 296.985C228.894 296.73 229.064 296.433 229.191 296.178C229.319 295.923 229.319 295.499 229.319 295.074C229.319 294.65 229.191 294.268 229.064 293.971C228.937 293.716 228.64 293.419 228.385 293.164C228.13 292.909 227.706 292.74 227.281 292.485C226.857 292.358 226.475 292.06 225.923 291.933C225.243 291.678 224.564 291.381 224.012 291.127C223.461 290.872 223.079 290.575 222.654 290.193C222.23 289.768 221.975 289.386 221.847 288.962C221.72 288.537 221.593 287.858 221.593 287.348C221.593 286.669 221.72 285.99 222.017 285.438C222.272 284.886 222.696 284.334 223.248 283.952C223.8 283.528 224.352 283.273 225.031 283.019C225.71 282.764 226.39 282.764 227.196 282.764C228.003 282.764 228.682 282.891 229.361 283.019C230.04 283.146 230.592 283.273 231.144 283.57V285.863C230.889 285.735 230.592 285.608 230.338 285.438C230.083 285.311 229.658 285.183 229.234 285.183C228.809 285.056 228.555 285.056 228.13 284.929C227.706 284.929 227.451 284.801 227.026 284.801C226.602 284.801 226.22 284.801 225.795 284.929C225.371 285.056 225.116 285.183 224.861 285.481C224.607 285.735 224.437 285.905 224.31 286.287C224.182 286.542 224.182 286.839 224.182 287.221C224.182 287.603 224.31 287.9 224.437 288.155C224.564 288.41 224.861 288.707 225.116 288.962C225.371 289.216 225.795 289.386 226.22 289.513C226.644 289.641 227.154 289.938 227.706 290.065C228.385 290.32 228.937 290.617 229.489 290.872C230.04 291.127 230.422 291.551 230.847 291.806C231.271 292.23 231.526 292.612 231.654 293.164C232.12 293.546 232.248 294.098 232.248 294.777ZM248.124 284.717H243.922V299.404H241.332V284.717H237.13V282.552H248.294V284.717H248.124ZM267.439 299.532H264.723L262.812 294.65H256.275L254.492 299.532H251.775L258.313 282.679H260.775L267.439 299.532ZM259.841 286.627C259.841 286.499 259.713 286.372 259.713 286.075C259.713 285.82 259.586 285.65 259.586 285.396C259.586 285.65 259.459 285.948 259.459 286.202C259.459 286.457 259.331 286.627 259.331 286.754L257.251 292.485H262.133L259.841 286.627Z" fill="black"/>
</svg>
